<?xml version="1.0" encoding="UTF-8" standalone="no"?>
<svg width="21px" height="12px" viewBox="0 0 21 12" version="1.1" xmlns="http://www.w3.org/2000/svg" xmlns:xlink="http://www.w3.org/1999/xlink">
    <!-- Generator: Sketch 3.8.3 (29802) - http://www.bohemiancoding.com/sketch -->
    <title>Fill 1</title>
    <desc>Created with Sketch.</desc>
    <defs></defs>
    <g id="Page-1" stroke="none" stroke-width="1" fill="none" fill-rule="evenodd">
        <path d="M7.35414101,5.15208437 L14.7794897,-2.55800294 C14.9902825,-2.77542712 14.9902825,-3.1298003 14.7794897,-3.34863633 C14.5700567,-3.56747235 14.2273483,-3.56747235 14.0179154,-3.34863633 L5.670518,5.31585842 C5.64603883,5.34409533 5.6351592,5.35680194 5.62699948,5.36950855 C5.59844044,5.41186391 5.59028072,5.42457051 5.582121,5.43868897 C5.56172169,5.48104433 5.55764182,5.48810355 5.55356196,5.49798647 C5.54404229,5.52481153 5.54132238,5.53751814 5.53724252,5.55022475 C5.52228302,5.60387487 5.52092307,5.61658148 5.51956311,5.62928809 C5.51276334,5.68435005 5.51276334,5.69846851 5.51276334,5.71117511 C5.51548325,5.76623708 5.51820316,5.78035554 5.51956311,5.79447399 C5.52908279,5.84671227 5.53316265,5.86083072 5.53724252,5.87636102 C5.55084205,5.91589269 5.55220201,5.92154007 5.55356196,5.9257756 C5.57124136,5.96389543 5.57532123,5.97519019 5.582121,5.98507311 C5.59028072,5.99919156 5.59708049,6.01189817 5.60660017,6.02460478 C5.6351592,6.06696014 5.64467888,6.0782549 5.65555851,6.08954966 C5.66099833,6.09519704 14.0179154,14.7723984 14.0179154,14.7723984 C14.1226319,14.8825223 14.2599872,14.9375843 14.3987025,14.9375843 C14.5360579,14.9375843 14.6747732,14.8825223 14.7794897,14.7723984 C14.9902825,14.5549742 14.9902825,14.1991892 14.7794897,13.981765 L7.35414101,6.27167771 L6.95703445,5.71117511 L7.35414101,5.15208437 Z" id="Fill-1" stroke="#52CCAD" stroke-width="2" transform="translate(10.225174, 5.712410) scale(1, -1) rotate(-90.000000) translate(-10.225174, -5.712410) "></path>
    </g>
</svg>