<svg width="14" height="14" viewBox="0 0 14 14" xmlns="http://www.w3.org/2000/svg"><title>Check Icon</title><path d="M5.627 8.59C6.9 6.926 8.173 5.26 9.447 3.593c.8-1.05 1.602-2.1 2.405-3.147.35-.455.985-.58 1.482-.29.414.243.666.59.666 1.085 0 .236-.08.448-.21.646-.598.918-1.194 1.838-1.79 2.757-1.81 2.79-3.628 5.572-5.424 8.37-.45.7-1.546.815-2.12.14-.523-.61-1.058-1.207-1.586-1.81l-1.835-2.1C.785 8.96.53 8.68.287 8.39c-.295-.355-.368-.762-.195-1.19.17-.422.497-.668.953-.726.347-.045.643.067.915.285.39.31.79.605 1.19.906.655.495 1.31.99 1.968 1.484.015.012.03.022.054.038.153-.2.305-.396.455-.594z" fill="#000" fill-rule="evenodd"/></svg>