<?xml version="1.0" encoding="UTF-8" standalone="no"?>
<svg width="18px" height="18px" viewBox="0 0 18 18" version="1.1" xmlns="http://www.w3.org/2000/svg" xmlns:xlink="http://www.w3.org/1999/xlink">
    <!-- Generator: Sketch 3.7.2 (28276) - http://www.bohemiancoding.com/sketch -->
    <title>Tombstone</title>
    <desc>Created with Sketch.</desc>
    <defs></defs>
    <g id="Page-1" stroke="none" stroke-width="1" fill="none" fill-rule="evenodd">
        <g id="Desktop" transform="translate(-735.000000, -6116.000000)">
            <g id="Group" transform="translate(0.000000, 249.000000)">
                <g id="Main-Content" transform="translate(115.000000, 948.000000)">
                    <g id="Fifth-Paragraph" transform="translate(120.000000, 4738.000000)">
                        <g id="Tombstone" transform="translate(500.000000, 181.000000)">
                            <rect id="Rectangle-127" fill="#C0D1D1" x="0" y="0" width="18" height="17.1818182"></rect>
                            <g id="Group-32" transform="translate(3.333333, 3.304196)" fill="#FFFFFF">
                                <path d="M9.62831642,0.633599259 C9.68840091,0.633599259 8.75074304,0.642550877 8.75074304,0.642550877 C8.7183761,0.649464008 8.69673853,0.663910679 8.68878091,0.688904305 L8.69548677,10.1758467 C8.69548677,10.2175914 8.695755,10.2766189 8.69602323,10.3097665 C8.69611265,10.3246563 8.71390552,10.3344056 8.71390552,10.3344056 C8.71390552,10.3344056 9.37063262,10.3506248 9.65621279,10.2913315 C10.4811228,10.120453 10.9101189,9.45218374 11.1396381,8.82574775 C11.2718777,8.45013431 11.3564609,8.06778501 11.3994678,7.66274645 L11.4400606,7.28722165 C11.4508794,7.26922978 11.7344925,7.3303844 11.7344925,7.3303844 L11.7263561,10.5944456 L6.55265198,10.5944456 C6.49337219,10.5697179 6.52046385,10.3952943 6.52046385,10.3499158 L6.56364958,10.3364441 L7.3165834,10.3364441 C7.33544921,10.3297082 7.36236206,10.3252767 7.36790557,10.3049805 L7.37604201,10.2302655 L7.37094556,0.695374286 C7.36280912,0.677293791 7.34689388,0.66284712 7.32248455,0.656022619 L6.56955074,0.639094312 L6.56713663,0.357783071 C6.56704722,0.357783071 8.57200956,0.317456476 9.62831642,0.357783071 C9.67624095,0.357783071 9.62831642,0.633599259 9.62831642,0.633599259 Z" id="Shape"></path>
                                <path d="M4.63309372,0.734919032 C4.70605346,0.809545391 4.75192154,0.895516375 4.82202011,0.967926988 C4.8516153,0.972535741 4.87334228,0.947630745 4.88943634,0.927245872 L5.50118948,0.192326903 C5.53346701,0.151468528 5.6216267,0.153861535 5.67017712,0.160597406 C5.69449703,0.169726284 5.70540523,0.190022526 5.70799816,0.210318769 L5.70540523,2.06995092 L5.68653941,3.19430959 C5.67563122,3.21221282 5.55108107,3.23286358 5.52407881,3.23047058 C5.48357542,3.23507933 5.45675199,3.20778133 5.44584379,3.18066058 C5.18136473,2.44086697 4.94433497,1.7640892 4.48815776,1.09457909 C4.1940835,0.69175628 3.72994867,0.255963157 3.07679804,0.32828514 C2.73140161,0.346454265 2.44796731,0.56581322 2.2697703,0.807329644 C1.90282571,1.2892103 1.81421896,1.71401332 1.68653941,2.34745108 C1.58058685,2.87364668 1.57262923,3.13492757 1.52506234,3.66715 C1.48750953,4.0862807 1.47964132,4.32380878 1.46569313,4.74382579 C1.44709555,5.30573923 1.43627677,5.62330009 1.46014962,6.18485902 C1.47517075,6.53831498 1.52506234,7.08985873 1.52506234,7.08985873 C1.6114338,8.00381005 1.68698647,8.81778688 2.15648599,9.59843886 C2.33477242,9.95818755 2.72961338,10.3961078 3.23067514,10.4038186 C3.57580333,10.4091364 3.77188264,10.3300785 4.04029581,10.1141761 C4.57739039,9.68228273 4.77168147,9.2141397 5.01729472,8.66871142 C5.20344935,8.1890465 5.27658792,7.69378273 5.41410273,7.1983417 C5.4411944,7.16200345 5.56502925,7.17113233 5.6083044,7.17334807 C5.62725962,7.1778682 5.64612544,7.18247695 5.65694422,7.1983417 L5.66499125,7.28440131 L5.65962657,10.7274063 C5.65417247,10.7477025 5.59560797,10.752134 5.57674215,10.7590471 C5.50655417,10.7816478 5.47964132,10.7227975 5.44182028,10.6912453 C5.22580222,10.3859154 5.00647593,10.1180759 4.78241084,9.81708878 L4.75272624,9.81708878 C4.56827042,10.0838647 4.34894413,10.2805344 4.04199463,10.4708228 C3.82141658,10.6075787 3.49560126,10.687966 3.25186565,10.6893841 C3.14215781,10.6899158 3.03423819,10.6815846 2.93096796,10.6687333 C2.61060674,10.6284067 2.00734769,10.4547808 1.61089733,10.0733178 C0.658307749,9.23399279 0.410101566,8.51440679 0.164488315,7.42860213 C-0.0459862362,6.51917092 -0.03758156,5.05225777 0.0945685618,4.11100844 C0.218761065,3.16311187 0.404647467,2.41640513 0.864669373,1.5837274 C1.12977432,1.10370796 1.43448854,0.698226261 1.99322068,0.336350459 C2.34675355,0.0896935015 2.72576869,6.24205455e-08 3.21958812,6.24205455e-08 C3.86799995,-0.000177197341 4.30924545,0.377208834 4.63309372,0.734919032" id="Shape"></path>
                            </g>
                        </g>
                    </g>
                </g>
            </g>
        </g>
    </g>
</svg>