<svg xmlns:dc="http://purl.org/dc/elements/1.1/" xmlns:cc="http://creativecommons.org/ns#" xmlns:rdf="http://www.w3.org/1999/02/22-rdf-syntax-ns#" xmlns:svg="http://www.w3.org/2000/svg" xmlns="http://www.w3.org/2000/svg" viewBox="0 0 650 250" xml:space="preserve" id="svg2" version="1.1"><metadata id="metadata8"><rdf:RDF><cc:Work rdf:about=""><dc:format>image/svg+xml</dc:format><dc:type rdf:resource="http://purl.org/dc/dcmitype/StillImage"/></cc:Work></rdf:RDF></metadata><defs id="defs6"><clipPath id="clipPath18" clipPathUnits="userSpaceOnUse"><path id="path16" d="M 0,500 H 855 V 0 H 0 Z"/></clipPath></defs><g transform="matrix(1.3333333,0,0,-1.333333,-492,670)" id="g10"><g id="g12"><g clip-path="url(#clipPath18)" id="g14"><g transform="translate(736.9008,334.953)" id="g20"><path id="path22" style="fill:#231f20;fill-opacity:1;fill-rule:nonzero;stroke:none" d="m 0,0 c -0.216,-2.456 -0.356,-4.881 -1.713,-7.098 -1.674,-2.733 -3.53,-3.222 -5.894,-0.86 -2.921,2.92 -4.497,6.605 -5.145,10.52 -2.294,13.856 -4.136,27.801 -2.566,41.863 0.967,8.663 2.659,17.252 5.496,25.542 0.5,1.46 0.952,3.661 2.751,3.68 1.812,0.02 2.287,-2.182 2.878,-3.631 2.569,-6.297 3.03,-13.029 3.328,-19.686 C -0.212,35.741 0.104,21.135 0.48,6.535 0.536,4.362 0.17,2.178 0,0 m 15.071,38.077 c -0.118,7.861 -1.533,15.695 -1.907,23.562 -0.364,7.662 -3.893,12.826 -10.73,15.994 -2.038,0.945 -3.81,2.001 -5.343,4.006 -3.334,4.358 -9.869,4.851 -14.15,1.265 -7.345,-6.153 -11.155,-14.258 -13.466,-23.552 -4.142,-16.665 -3.197,-33.335 -1.146,-50.02 0.895,-7.277 4.286,-13.689 9.36,-19.211 4.065,-4.424 9.372,-4.34 14.62,-5.1 8.618,-1.247 16.964,4.087 19.321,12.476 0.853,3.039 1.452,6.087 1.824,9.205 1.442,10.409 1.773,20.907 1.617,31.375"/></g><g transform="translate(589.9217,458.5557)" id="g24"><path id="path26" style="fill:#231f20;fill-opacity:1;fill-rule:nonzero;stroke:none" d="m 0,0 c 0.303,-11.437 -0.405,-22.037 -0.488,-32.654 -0.212,-26.915 1.238,-53.828 -0.057,-80.741 -0.33,-6.847 -0.203,-13.719 -0.171,-20.579 0.016,-3.573 -1.862,-4.819 -5.122,-4.745 -1.552,0.035 -3.114,-0.113 -4.659,0 -3.438,0.252 -5.47,2.325 -5.351,5.803 0.267,7.841 1.297,15.624 1.457,23.497 0.28,13.798 1.308,27.56 0.79,41.401 -0.398,10.647 0.313,21.361 0.115,32.008 -0.191,10.254 0.17,20.51 -0.269,30.763 -0.447,10.443 1.491,20.79 1.674,31.218 0.053,2.981 0.242,5.972 0.056,8.939 -0.125,1.983 -0.142,4.27 -2.721,5.096 -0.619,0.199 -1.127,0.738 -0.872,1.493 0.247,0.732 0.995,0.691 1.614,0.84 6.69,1.614 12.258,-1.672 14.075,-8.697 C 1.677,27.437 1.141,21.029 1.018,14.708 0.918,9.53 0.319,4.362 0,0"/></g><g transform="translate(622.0981,458.5557)" id="g28"><path id="path30" style="fill:#231f20;fill-opacity:1;fill-rule:nonzero;stroke:none" d="m 0,0 c 0.303,-11.437 -0.405,-22.037 -0.488,-32.654 -0.212,-26.915 1.238,-53.828 -0.057,-80.741 -0.33,-6.847 -0.203,-13.719 -0.171,-20.579 0.016,-3.573 -1.862,-4.819 -5.122,-4.745 -1.552,0.035 -3.114,-0.113 -4.659,0 -3.438,0.252 -5.47,2.325 -5.351,5.803 0.267,7.841 1.297,15.624 1.457,23.497 0.28,13.798 1.308,27.56 0.79,41.401 -0.398,10.647 0.313,21.361 0.115,32.008 -0.191,10.254 0.171,20.51 -0.269,30.763 -0.447,10.443 1.491,20.79 1.674,31.218 0.053,2.981 0.242,5.972 0.056,8.939 -0.125,1.983 -0.142,4.27 -2.72,5.096 -0.62,0.199 -1.128,0.738 -0.873,1.493 0.247,0.732 0.995,0.691 1.614,0.84 6.69,1.614 12.258,-1.672 14.075,-8.697 C 1.677,27.437 1.141,21.029 1.018,14.708 0.918,9.53 0.319,4.362 0,0"/></g><g transform="translate(522.1113,424.0823)" id="g32"><path id="path34" style="fill:#231f20;fill-opacity:1;fill-rule:nonzero;stroke:none" d="m 0,0 c -2.193,1.029 -7.705,-1.962 -8.039,-4.497 -1.813,-13.731 -4.091,-27.386 -6.698,-40.984 -0.982,-5.119 -1.493,-10.373 -3.529,-15.291 -0.6,1.939 -0.751,3.853 -1.103,5.729 -2.044,10.873 -2.589,21.907 -3.713,32.882 -0.672,6.573 -0.985,13.268 -4.526,19.341 -1.835,3.146 -3.86,3.364 -6.876,2.775 -3.027,-0.592 -3.248,-2.853 -3.632,-5.14 -0.199,-1.19 -0.344,-2.389 -0.566,-3.573 -2.718,-14.445 -5.344,-28.908 -8.227,-43.319 -0.991,-4.949 -1.68,-10.07 -4.615,-14.534 -0.492,6.784 -1.243,13.475 -1.867,20.177 -1.112,11.96 -1.363,23.993 -2.841,35.927 -0.714,5.771 -4.489,9.056 -10.092,9.156 -1.728,0.031 -2.024,-0.441 -1.847,-2.063 0.764,-6.982 1.436,-13.973 2.062,-20.968 1.281,-14.293 2.593,-28.583 3.733,-42.887 0.789,-9.908 1.251,-19.82 2.433,-29.723 0.66,-5.531 3.158,-5.627 6.966,-6.189 1.938,-0.285 2.799,-0.118 3.405,1.908 2.401,8.025 4.307,16.192 6.392,24.285 2.037,7.906 3.258,16.092 4.094,24.296 0.544,5.332 1.914,10.579 2.958,16.098 1.897,-1.142 1.373,-2.654 1.446,-3.845 1.105,-18.053 2.133,-36.114 5.327,-53.958 0.318,-1.777 0.845,-3.56 1.568,-5.212 1.708,-3.9 5.447,-2.265 8.346,-2.773 3.431,-0.602 5.551,0.848 6.184,4.473 1.092,6.247 1.319,12.567 1.53,18.865 0.393,11.789 1.575,23.495 3.495,35.108 1.642,9.928 3.602,19.816 5.837,29.627 0.975,4.279 -0.475,9.122 2.896,12.871 C 0.935,-0.956 0.709,-0.333 0,0"/></g><g transform="translate(808.9827,326.5042)" id="g36"><path id="path38" style="fill:#231f20;fill-opacity:1;fill-rule:nonzero;stroke:none" d="m 0,0 c -1.845,7.65 -2.226,15.482 -2.555,23.259 -0.744,17.604 -0.966,35.229 -1.524,52.841 -0.163,5.171 -0.65,10.38 -3.272,15.016 -2.266,4.008 -5.975,5.958 -10.467,5.696 -3.506,-0.204 -5.202,-3.117 -6.369,-6.026 -2.045,-5.097 -4.034,-10.216 -4.985,-15.69 -0.866,-4.978 -1.883,-9.946 -3.904,-14.7 -0.953,4.359 -1.732,8.678 -2.118,13.031 -0.453,5.12 -1.677,10.001 -3.817,14.637 -2.182,4.728 -6.646,7.335 -11.906,6.726 3.408,-2.448 4.4,-5.52 4.733,-8.912 1.54,-15.701 1.811,-31.476 2.621,-47.216 0.645,-12.546 0.469,-25.13 0.116,-37.698 -0.163,-5.777 1.385,-7.541 7.101,-8.198 0.978,-0.112 1.939,-0.426 2.916,-0.47 2.473,-0.111 5.074,1.116 4.562,4.111 -0.292,1.707 -0.042,3.511 0.002,5.271 0.328,13.087 -2.113,26.047 -1.061,39.229 1.336,16.747 5.086,32.821 10.685,48.556 0.223,0.628 0.329,1.587 1.635,1.391 0.485,-4.376 -0.124,-8.739 -0.172,-13.105 -0.191,-17.283 -0.279,-34.56 0.496,-51.841 0.376,-8.384 1.414,-16.645 2.825,-24.883 0.818,-4.776 3.218,-7.104 7.036,-7.39 1.598,-0.12 2.603,1.019 3.955,1.304 C 0.194,-4.289 0.847,-3.511 0,0"/></g><g transform="translate(829.6417,360.8158)" id="g40"><path id="path42" style="fill:#231f20;fill-opacity:1;fill-rule:nonzero;stroke:none" d="m 0,0 c 0.215,0.199 0.496,0.357 0.629,0.596 4.448,8.036 8.25,16.324 10.736,25.222 1.971,7.048 2.12,14.079 0.926,21.212 -0.114,0.682 -0.367,1.366 -0.686,1.981 -0.408,0.788 -1.069,0.947 -1.686,0.225 C 8.546,47.628 7.273,45.974 6.562,43.912 5.48,40.78 4.425,37.616 3.029,34.619 0.551,29.298 -0.049,23.587 -0.689,17.908 -1.275,12.714 -0.787,7.475 -0.624,2.257 -0.6,1.476 -0.772,0.647 0,0 m 12.695,-33.377 c 1.122,3.095 2.253,6.244 2.124,9.729 -0.081,2.169 -0.042,2.167 2.177,2.525 0.497,0.08 0.984,0.232 1.482,0.281 2.811,0.278 4.433,-1.078 4.417,-3.943 -0.032,-5.729 -2.281,-10.78 -5.195,-15.548 -1,-1.636 -3.141,-2.123 -5.138,-1.289 -1.25,0.522 -2.46,0.724 -3.791,0.757 -2.904,0.071 -5.128,1.722 -7.092,3.602 -3.937,3.769 -6.371,8.54 -8.279,13.552 -4.051,10.64 -5.953,21.609 -5.894,33.071 0.062,12.042 2.101,23.638 6.077,34.9 1.778,5.035 4.41,9.716 9.109,12.818 1.351,0.892 2.584,1.323 4.119,0.35 2.082,-1.319 4.618,-1.312 6.895,-2.131 3.31,-1.191 6.118,-3.042 8.498,-5.57 1.684,-1.79 2.655,-3.822 2.977,-6.397 0.82,-6.571 -0.112,-12.934 -2.48,-18.941 C 21.361,20.992 19.468,17.748 18.23,14.273 16.605,9.708 14.742,5.225 12.213,1.137 9.352,-3.491 7.644,-8.69 4.648,-13.215 c -1.81,-2.734 -1.581,-5.29 -0.062,-8.164 2.02,-3.821 3.691,-7.819 6.626,-11.088 0.334,-0.372 0.568,-0.835 1.483,-0.91"/></g><g transform="translate(537.7752,361.8158)" id="g44"><path id="path46" style="fill:#231f20;fill-opacity:1;fill-rule:nonzero;stroke:none" d="m 0,0 c 0.215,0.199 0.496,0.357 0.629,0.596 4.448,8.036 8.25,16.324 10.736,25.222 1.971,7.048 2.12,14.079 0.926,21.212 -0.114,0.682 -0.367,1.366 -0.686,1.981 -0.408,0.788 -1.069,0.947 -1.686,0.225 C 8.546,47.628 7.273,45.974 6.562,43.912 5.48,40.78 4.425,37.616 3.029,34.619 0.551,29.298 -0.049,23.587 -0.689,17.908 -1.275,12.714 -0.787,7.475 -0.624,2.257 -0.6,1.476 -0.772,0.647 0,0 m 12.695,-33.377 c 1.122,3.095 2.253,6.244 2.124,9.729 -0.081,2.169 -0.042,2.167 2.177,2.525 0.497,0.08 0.984,0.232 1.482,0.281 2.811,0.278 4.433,-1.078 4.417,-3.943 -0.032,-5.729 -2.281,-10.78 -5.195,-15.548 -1,-1.636 -3.141,-2.123 -5.138,-1.289 -1.25,0.522 -2.46,0.724 -3.791,0.757 -2.904,0.071 -5.128,1.722 -7.092,3.602 -3.937,3.769 -6.371,8.54 -8.279,13.552 -4.051,10.64 -5.953,21.609 -5.894,33.071 0.062,12.042 2.101,23.638 6.077,34.9 1.778,5.035 4.41,9.716 9.109,12.818 1.351,0.892 2.584,1.323 4.119,0.35 2.082,-1.319 4.618,-1.312 6.895,-2.131 3.31,-1.191 6.118,-3.042 8.498,-5.57 1.684,-1.79 2.655,-3.822 2.977,-6.397 0.82,-6.571 -0.112,-12.934 -2.48,-18.941 C 21.361,20.992 19.468,17.748 18.23,14.273 16.605,9.708 14.742,5.225 12.213,1.137 9.352,-3.491 7.644,-8.69 4.648,-13.215 c -1.81,-2.734 -1.581,-5.29 -0.062,-8.164 2.02,-3.821 3.691,-7.819 6.626,-11.088 0.334,-0.372 0.568,-0.835 1.483,-0.91"/></g><g transform="translate(681.0615,329.0867)" id="g48"><path id="path50" style="fill:#231f20;fill-opacity:1;fill-rule:nonzero;stroke:none" d="m 0,0 c 0.107,4.859 0.323,9.105 0.266,13.347 -0.088,6.465 -0.532,12.927 -0.525,19.389 0.013,11.502 0.253,23.003 0.391,34.504 0.009,0.748 0.295,1.664 -0.527,2.109 -1.074,0.581 -1.634,-0.391 -2.226,-1.016 -2.886,-3.044 -4.799,-6.708 -6.665,-10.416 -3.446,-6.847 -5.303,-14.166 -4.755,-21.73 0.664,-9.162 2.54,-18.206 6.304,-26.669 C -6.129,5.902 -3.766,2.64 0,0 m -25.293,37.401 c -0.317,4.818 1.25,10.11 3.784,15.145 1.617,3.214 2.736,6.636 4.072,9.945 2.43,6.018 6.391,10.908 10.304,15.862 1.339,1.696 3.199,3.04 4.996,4.294 1.678,1.172 2.265,2.594 2.323,4.58 0.379,12.953 0.797,25.904 1.304,38.852 0.329,8.423 0.809,16.841 1.273,25.258 0.085,1.548 0.354,3.095 0.653,4.619 0.278,1.415 -0.054,3.216 2.351,3.311 2.129,0.084 3.876,-0.656 4.617,-2.681 0.528,-1.443 0.942,-2.981 1.075,-4.505 0.403,-4.632 0.32,-9.231 -0.046,-13.909 -0.379,-4.835 -0.142,-9.811 0.096,-14.705 0.401,-8.246 0.394,-16.489 0.452,-24.736 0.067,-9.568 0.06,-19.137 0.273,-28.701 C 12.525,56.942 12.239,43.868 11.804,30.789 11.628,25.484 12.091,20.155 11.83,14.858 11.542,9.013 11.837,3.225 12.456,-2.565 12.648,-4.359 12.392,-5.682 10.252,-5.826 9.995,-5.843 9.64,-5.828 9.502,-5.982 7.014,-8.755 3.415,-7.963 0.35,-8.87 c -3.276,-0.97 -6.12,-0.266 -8.627,2.044 -10.298,9.491 -16.217,21.046 -16.697,35.197 -0.049,1.417 -0.342,2.824 -0.406,4.241 -0.059,1.289 0.038,2.585 0.087,4.789"/></g><g id="g52"><g id="g54"/><g id="g66"><g id="g64" clip-path="url(#clipPath58)"><g id="g62" transform="translate(368.8857,450.5739)"><path id="path60" style="fill:#ccc8bd;fill-opacity:1;fill-rule:nonzero;stroke:none" d="m 0,0 c 9.952,-1.714 19.227,2.356 29.503,0.405 -1.319,5.622 -3.833,10.046 -5.44,14.767 -1.621,4.764 -4.443,8.822 -7.814,13.011 3.651,2.24 7.296,2.734 10.784,1.443 5.184,-1.919 9.692,-4.797 12.029,-10.358 2.176,-5.18 2.447,-5.109 5.776,-0.51 3.409,4.71 7.692,8.603 11.704,12.752 0.558,0.577 1.102,1.188 2.042,0.892 3.277,-1.031 6.262,-2.562 8.186,-5.525 0.939,-1.445 0.738,-2.911 -0.335,-4.455 C 62.799,17.193 59.324,11.853 55.781,6.559 55.172,5.648 54.094,4.775 54.874,3.588 55.468,2.685 56.627,3.03 57.548,3.092 c 4.161,0.28 8.313,0.732 12.478,0.893 4.379,0.17 8.774,-2.755 10.266,-6.603 0.447,-1.151 -0.063,-1.987 -1.285,-1.892 -1.907,0.148 -3.786,0.696 -5.692,0.801 -6.113,0.338 -12.184,-0.258 -18.225,-1.142 -4.678,-0.685 -5.958,-2.15 -4.218,-6.403 1.553,-3.796 1.678,-8.042 4.387,-11.52 3.259,-4.186 4.179,-9.594 6.32,-14.381 0.721,-1.611 0.265,-2.78 -0.727,-3.946 -3.929,-4.615 -9.119,-4.067 -12.479,0.594 -1.515,2.1 -2.206,4.574 -2.874,7.087 -1.239,4.653 -2.889,9.174 -6.148,13.009 -0.499,-0.196 -1.146,-0.244 -1.298,-0.543 -2.395,-4.702 -6.151,-8.533 -8.28,-13.445 -1.713,-3.951 -4.847,-7.078 -7.4,-10.532 -1.282,-1.735 -2.766,-2.012 -4.998,-0.913 -2.004,0.985 -4,1.95 -5.901,3.132 -1.262,0.784 -2.069,2.34 -1.485,3.238 1.492,2.296 1.18,5.065 3.452,7.427 3.439,3.573 6.285,7.951 8.761,12.481 2.034,3.723 4.501,7.162 5.337,11.75 -4.17,-0.261 -8.272,-0.486 -12.37,-0.783 -2.87,-0.209 -5.673,-0.86 -8.591,-0.942 -3.913,-0.11 -4.792,0.112 -5.68,3.703 C 0.445,-4.006 0.311,-2.096 0,0"/></g></g></g></g></g></g></g></svg>