<?xml version="1.0" encoding="UTF-8" standalone="no"?><svg xmlns="http://www.w3.org/2000/svg" xmlns:xlink="http://www.w3.org/1999/xlink"><symbol viewBox="0 0 10 8" id="icon-arrow-back"><title>Arrow</title><path d="M3.172 0l.139.166.394.468.141.168-.14.167-1.89 2.265H10v1.138H1.816l1.89 2.265.14.168-.14.167-.395.469-.14.166-.138-.167L.139 3.97 0 3.804l.139-.167L3.033.166z" fill="#171A1A" fill-rule="evenodd"/></symbol><symbol viewBox="0 0 19 10" id="icon-arrow-down"><title>Down</title><path d="M9.152 8.096L1.442.67a.574.574 0 0 0-.79 0 .522.522 0 0 0 0 .762L9.315 9.78l.017.013a.22.22 0 0 0 .037.03c.01.007.02.015.03.02.012.01.025.017.04.025.01.007.02.01.033.017l.025.012c.004 0 .01.003.014.004.013.006.026.01.038.013l.04.012.04.006c.013.002.028.005.042.005a.171.171 0 0 0 .04.003c.013 0 .027 0 .04-.003.014 0 .028-.003.042-.004a.19.19 0 0 0 .04-.005l.042-.012.034-.01.016-.006a.138.138 0 0 0 .027-.014c.01-.004.022-.008.032-.015.014-.008.027-.015.04-.024l.03-.02c.012-.01.023-.018.035-.03l.018-.014 8.664-8.348a.518.518 0 0 0 0-.76.57.57 0 0 0-.79 0h-.002l-7.708 7.424-.56.397-.56-.397z" fill-rule="evenodd"/></symbol><symbol viewBox="0 0 21 12" id="icon-arrow-down-thick"><title>Fill 1</title><path d="M10.785 8.583l7.71-7.425a.573.573 0 0 1 .791 0 .524.524 0 0 1 0 .762l-8.664 8.347a.519.519 0 0 1-.054.044 1.168 1.168 0 0 1-.07.044l-.058.029c-.027.01-.04.012-.053.016-.053.015-.066.017-.079.018-.055.007-.069.007-.082.007-.055-.003-.069-.006-.083-.007-.052-.01-.066-.014-.082-.018l-.05-.016c-.037-.018-.049-.022-.058-.029-.015-.008-.027-.014-.04-.024a.431.431 0 0 1-.065-.049L1.165 1.92a.523.523 0 0 1 0-.762.573.573 0 0 1 .79 0l7.71 7.425.561.398.56-.398z" stroke="#52CCAD" stroke-width="2" fill="none" fill-rule="evenodd"/></symbol><symbol viewBox="0 0 22 44" id="icon-arrow-next"><defs xmlns="http://www.w3.org/2000/svg"><style>.adfiltered{filter:url(#addropshadow)}</style><filter id="addropshadow" height="130%"><feGaussianBlur in="SourceAlpha" stdDeviation="3"/><feOffset dx="2" dy="2" result="offsetblur"/><feComponentTransfer><feFuncA type="linear" slope=".2"/></feComponentTransfer><feMerge><feMergeNode/><feMergeNode in="SourceGraphic"/></feMerge></filter></defs><path class="adfiltered" d="M0 44V0l22 22L0 44z" id="adarrow-next"/></symbol><symbol viewBox="0 0 22 44" id="icon-arrow-prev"><path d="M22 0v44L0 22 22 0z"/></symbol><symbol viewBox="0 0 10 10" id="icon-arrow-small"><title>arrow-small-line</title><path d="M4.764 0l-.219.218-.622.616-.222.22.221.22 2.979 2.978H0v1.495h6.901L3.922 8.725l-.221.221.222.22.622.616.219.218.219-.219L9.545 5.22l.219-.221-.219-.219L4.983.219 4.764 0z" fill="#3D9982" fill-rule="evenodd"/></symbol><symbol viewBox="0 0 21 12" id="icon-arrow-up"><title>Fill 1</title><path d="M9.665 2.841l-7.71 7.426a.573.573 0 0 1-.79 0 .524.524 0 0 1 0-.762l8.664-8.347a.519.519 0 0 1 .053-.044l.07-.045.059-.028c.027-.01.04-.012.052-.017.054-.014.066-.016.08-.017.054-.007.068-.007.08-.007.056.003.07.005.084.007l.082.017.05.017c.038.017.049.022.059.028.014.009.027.015.04.025a.431.431 0 0 1 .064.049l8.683 8.362a.523.523 0 0 1 0 .762.573.573 0 0 1-.79 0l-7.71-7.426-.561-.397-.56.397z" stroke="#52CCAD" stroke-width="2" fill="none" fill-rule="evenodd"/></symbol><symbol viewBox="0 0 84 84" id="icon-badge-easy"><title>Cooking Light - Easy</title><g fill="none" fill-rule="evenodd"><ellipse fill="#FFECE6" cx="42" cy="42" rx="42" ry="42"/><path d="M12 49.728h10.464v-2.736h-7.416v-4.056h6.288v-2.712h-6.288v-4.296h7.176v-2.736H12v16.536zm25.62 0h3.24l-6.192-16.536h-3.312l-6.192 16.536h3.264l1.512-4.008h6.168l1.512 4.008zM33.012 36.72l2.088 6.312h-4.128l2.04-6.312zm10.452 8.184c0 2.832 2.4 5.088 5.928 5.088 3.024 0 5.664-1.704 5.808-4.68.144-1.944-.816-4.032-4.512-5.04l-2.04-.6c-1.776-.48-1.968-1.368-1.968-1.896 0-1.176 1.104-1.944 2.472-1.944 1.536 0 2.472.864 2.472 2.16h3.072C54.696 34.896 52.32 33 49.2 33c-3.048 0-5.568 1.944-5.568 4.848 0 1.464.576 3.552 4.176 4.608l2.04.528c1.608.432 2.352 1.152 2.28 2.256-.072 1.128-1.08 1.992-2.736 1.992-1.776 0-2.808-1.128-2.856-2.328h-3.072zm23.532 4.824V42.24l6.384-9.048h-3.672l-4.296 6.36-4.248-6.36h-3.648l6.336 9v7.536h3.144z" fill="#F26457"/></g></symbol><symbol viewBox="0 0 84 84" id="icon-badge-fast"><title>Cooking Light - Fast</title><g fill="none" fill-rule="evenodd"><ellipse fill="#FFECE6" cx="42" cy="42" rx="42" ry="42"/><path d="M14 49.728h3.072V42.96h5.568v-2.736h-5.568v-4.296h7.032v-2.736H14v16.536zm23.7 0h3.24l-6.192-16.536h-3.312l-6.192 16.536h3.264l1.512-4.008h6.168l1.512 4.008zM33.092 36.72l2.088 6.312h-4.128l2.04-6.312zm10.452 8.184c0 2.832 2.4 5.088 5.928 5.088 3.024 0 5.664-1.704 5.808-4.68.144-1.944-.816-4.032-4.512-5.04l-2.04-.6c-1.776-.48-1.968-1.368-1.968-1.896 0-1.176 1.104-1.944 2.472-1.944 1.536 0 2.472.864 2.472 2.16h3.072C54.776 34.896 52.4 33 49.28 33c-3.048 0-5.568 1.944-5.568 4.848 0 1.464.576 3.552 4.176 4.608l2.04.528c1.608.432 2.352 1.152 2.28 2.256-.072 1.128-1.08 1.992-2.736 1.992-1.776 0-2.808-1.128-2.856-2.328h-3.072zM58.34 36h4.656v13.728h3.096V36h4.656v-2.808H58.34V36z" fill="#F26457"/></g></symbol><symbol viewBox="0 0 84 84" id="icon-badge-good"><title>Cooking Light - So Good</title><g fill="none" fill-rule="evenodd"><ellipse fill="#FFECE6" cx="42" cy="42" rx="42" ry="42"/><path d="M27.59 33.92c0 2.36 2 4.24 4.94 4.24 2.52 0 4.72-1.42 4.84-3.9.12-1.62-.68-3.36-3.76-4.2l-1.7-.5c-1.48-.4-1.64-1.14-1.64-1.58 0-.98.92-1.62 2.06-1.62 1.28 0 2.06.72 2.06 1.8h2.56c0-2.58-1.98-4.16-4.58-4.16-2.54 0-4.64 1.62-4.64 4.04 0 1.22.48 2.96 3.48 3.84l1.7.44c1.34.36 1.96.96 1.9 1.88-.06.94-.9 1.66-2.28 1.66-1.48 0-2.34-.94-2.38-1.94h-2.56zm15.54-2.84c0-2.52 1.94-4.56 4.44-4.56 2.48 0 4.44 2.04 4.44 4.56 0 2.52-1.96 4.54-4.44 4.54-2.5 0-4.44-2.02-4.44-4.54zm-2.54 0c0 3.88 3.06 7.06 6.98 7.06 3.92 0 7-3.18 7-7.06 0-3.92-3.08-7.08-7-7.08s-6.98 3.16-6.98 7.08zM22.02 48.1c-1.2-1.28-2.98-2.1-5-2.1-3.94 0-7.02 3.16-7.02 7.08 0 3.88 3.08 7.06 7.02 7.06 3.96 0 6.66-2.28 6.66-7.32h-6.72v2.1h3.78c-.06 1.76-1.88 2.86-3.72 2.86-2.52 0-4.46-2.14-4.46-4.7 0-2.58 1.94-4.68 4.46-4.68 1.24 0 2.32.52 3.12 1.34l1.88-1.64zm7.14 4.98c0-2.52 1.94-4.56 4.44-4.56 2.48 0 4.44 2.04 4.44 4.56 0 2.52-1.96 4.54-4.44 4.54-2.5 0-4.44-2.02-4.44-4.54zm-2.54 0c0 3.88 3.06 7.06 6.98 7.06 3.92 0 7-3.18 7-7.06 0-3.92-3.08-7.08-7-7.08s-6.98 3.16-6.98 7.08zm19.78 0c0-2.52 1.94-4.56 4.44-4.56 2.48 0 4.44 2.04 4.44 4.56 0 2.52-1.96 4.54-4.44 4.54-2.5 0-4.44-2.02-4.44-4.54zm-2.54 0c0 3.88 3.06 7.06 6.98 7.06 3.92 0 7-3.18 7-7.06 0-3.92-3.08-7.08-7-7.08s-6.98 3.16-6.98 7.08zM64.5 48.5h2.82c2.44 0 3.66 2.08 3.66 4.58 0 2.48-1.22 4.52-3.66 4.52H64.5v-9.1zm2.82 11.44c3.94 0 6.22-2.96 6.22-6.86 0-3.92-2.28-6.92-6.22-6.92h-5.38v13.78h5.38z" fill="#F26457"/></g></symbol><symbol viewBox="0 0 84 84" id="icon-badge-how-to"><title>Cooking Light - How-To</title><g fill="none" fill-rule="evenodd"><ellipse fill="#FFECE6" cx="42" cy="42" rx="42" ry="42"/><path d="M14.448 36.128v4.624h-4.416v-4.624H8v11.024h2.032v-4.56h4.416v4.56h2.064V36.128h-2.064zm7.426 5.536c0-2.016 1.552-3.648 3.552-3.648 1.984 0 3.552 1.632 3.552 3.648s-1.568 3.632-3.552 3.632c-2 0-3.552-1.616-3.552-3.632zm-2.032 0c0 3.104 2.448 5.648 5.584 5.648 3.136 0 5.6-2.544 5.6-5.648 0-3.136-2.464-5.664-5.6-5.664-3.136 0-5.584 2.528-5.584 5.664zm22.578 2.144l-1.664-6.144h-1.632l-1.68 6.144-2.352-7.68h-2.208l3.712 11.024h1.664l1.664-6.256 1.696 6.256h1.648l3.744-11.024h-2.224l-2.368 7.68zm6.514.288h5.616v-1.632h-5.616v1.632zM56.424 38h3.104v9.152h2.064V38h3.104v-1.872h-8.272V38zm12.706 3.664c0-2.016 1.552-3.648 3.552-3.648 1.984 0 3.552 1.632 3.552 3.648s-1.568 3.632-3.552 3.632c-2 0-3.552-1.616-3.552-3.632zm-2.032 0c0 3.104 2.448 5.648 5.584 5.648 3.136 0 5.6-2.544 5.6-5.648 0-3.136-2.464-5.664-5.6-5.664-3.136 0-5.584 2.528-5.584 5.664z" fill="#F26457"/></g></symbol><symbol viewBox="0 0 84 84" id="icon-badge-staff"><title>Cooking Light - Staff Fave</title><g fill="none" fill-rule="evenodd"><ellipse fill="#FFECE6" cx="42" cy="42" rx="42" ry="42"/><path d="M14 35.928c0 2.124 1.8 3.816 4.446 3.816 2.268 0 4.248-1.278 4.356-3.51.108-1.458-.612-3.024-3.384-3.78l-1.53-.45c-1.332-.36-1.476-1.026-1.476-1.422 0-.882.828-1.458 1.854-1.458 1.152 0 1.854.648 1.854 1.62h2.304c0-2.322-1.782-3.744-4.122-3.744-2.286 0-4.176 1.458-4.176 3.636 0 1.098.432 2.664 3.132 3.456l1.53.396c1.206.324 1.764.864 1.71 1.692-.054.846-.81 1.494-2.052 1.494-1.332 0-2.106-.846-2.142-1.746H14zm11.472-6.678h3.492v10.296h2.322V29.25h3.492v-2.106h-9.306v2.106zm19.716 10.296h2.43l-4.644-12.402H40.49l-4.644 12.402h2.448l1.134-3.006h4.626l1.134 3.006zm-3.456-9.756l1.566 4.734h-3.096l1.53-4.734zm8.934 9.756h2.304V34.47h4.176v-2.052H52.97v-3.222h5.274v-2.052h-7.578v12.402zm11.112 0h2.304V34.47h4.176v-2.052h-4.176v-3.222h5.274v-2.052h-7.578v12.402zm-35.397 20h2.305V54.47h4.176v-2.052h-4.175v-3.222h5.274v-2.052h-7.58v12.402zm18.15 0h2.43l-4.643-12.402h-2.484L35.19 59.546h2.447l1.134-3.006h4.627l1.134 3.006zm-3.455-9.756l1.566 4.734h-3.095l1.53-4.734zm7.116-2.646l3.78 12.402h2.07l3.763-12.402H55.41l-2.413 8.64-2.412-8.64H48.19z" fill="#F26457"/></g></symbol><symbol viewBox="0 0 84 84" id="icon-badge-wow"><title>Cooking Light Badge - Wow!</title><g fill="none" fill-rule="evenodd"><ellipse fill="#FFECE6" cx="42" cy="42" rx="42" ry="42"/><path d="M24.304 45.712l-2.496-9.216H19.36l-2.52 9.216-3.528-11.52H10l5.568 16.536h2.496l2.496-9.384 2.544 9.384h2.472l5.616-16.536h-3.336l-3.552 11.52zm12.324-3.216c0-3.024 2.328-5.472 5.328-5.472 2.976 0 5.328 2.448 5.328 5.472 0 3.024-2.352 5.448-5.328 5.448-3 0-5.328-2.424-5.328-5.448zm-3.048 0c0 4.656 3.672 8.472 8.376 8.472 4.704 0 8.4-3.816 8.4-8.472 0-4.704-3.696-8.496-8.4-8.496-4.704 0-8.376 3.792-8.376 8.496zm33.492 3.216l-2.496-9.216h-2.448l-2.52 9.216-3.528-11.52h-3.312l5.568 16.536h2.496l2.496-9.384 2.544 9.384h2.472l5.616-16.536h-3.336l-3.552 11.52z" fill="#F26457"/></g></symbol><symbol viewBox="0 0 35 32" id="icon-ckl-bug"><title>Group</title><path d="M28.085 1.364c.176 0-2.56.027-2.56.027-.095.02-.158.062-.18.136l.019 27.914.001.394c0 .044.052.073.052.073s1.916.048 2.75-.127c2.406-.503 3.658-2.469 4.328-4.312.385-1.105.632-2.23.758-3.422l.118-1.105c.032-.053.859.127.859.127l-.024 9.604H19.112c-.173-.073-.094-.586-.094-.72l.126-.04h2.197c.055-.019.133-.032.15-.092l.023-.22L21.5 1.546a.21.21 0 0 0-.141-.116l-2.197-.05-.007-.827s5.85-.119 8.931 0c.14 0 0 .811 0 .811zm-14.572.798c.213.22.347.473.551.686.087.014.15-.06.197-.12L16.045.566c.094-.12.351-.113.493-.093.07.026.103.086.11.146l-.007 5.472-.055 3.308c-.032.053-.395.113-.474.106-.118.014-.196-.066-.228-.146-.772-2.177-1.463-4.168-2.794-6.138C12.233 2.035 10.88.753 8.974.966c-1.007.053-1.834.699-2.354 1.41-1.07 1.417-1.329 2.667-1.7 4.531-.31 1.548-.333 2.317-.472 3.883-.11 1.233-.132 1.932-.173 3.168-.054 1.654-.086 2.588-.016 4.24.044 1.04.19 2.663.19 2.663.251 2.69.471 5.084 1.84 7.381.52 1.059 1.672 2.347 3.134 2.37 1.006.016 1.578-.217 2.361-.852 1.567-1.271 2.133-2.648 2.85-4.253.543-1.412.756-2.869 1.157-4.327.08-.107.44-.08.567-.073.055.013.11.027.141.073l.024.254-.016 10.13c-.016.06-.186.073-.242.093-.204.067-.283-.106-.393-.2-.63-.898-1.27-1.686-1.923-2.571h-.087c-.538.785-1.178 1.363-2.073 1.923-.643.403-1.593.64-2.304.643a7.245 7.245 0 0 1-.936-.06c-.935-.12-2.694-.63-3.85-1.752-2.779-2.47-3.503-4.587-4.22-7.782-.613-2.676-.589-6.992-.203-9.762.362-2.789.904-4.986 2.246-7.436.773-1.412 1.662-2.606 3.292-3.67C6.844.264 7.95 0 9.39 0c1.892 0 3.179 1.11 4.123 2.162z" fill="#171A1A" fill-rule="evenodd"/></symbol><symbol class="aoicon aoicon-logo" fill="#8EBABD" viewBox="94 349 425 94" id="icon-ckl-logo"><title>MyRecipes</title><path fill="#5e9ca1" d="M94 385.6h16.3v6.8c2.8-4.3 8-8 15.8-8 6.7 0 11.1 2.5 13.4 7.2 4.4-5 10.2-7.2 16.5-7.2 9.6 0 16.3 5.5 16.3 16.4v29.4h-16.5v-27.7c0-3.9-3.7-6.2-7.1-6.2-4.2 0-7.5 3.1-7.5 7.4v26.6h-16.4v-27.7c0-3.9-3.8-6.2-7-6.2-4.3 0-7.5 3.1-7.5 7.4v26.6H94v-44.8z"/><path fill="#5e9ca1" d="M188 413.9l-18.3-29.2h18.6l8.7 15.8 7.1-15.8h17.3l-23.8 45.2H180"/><path d="M227.5 384.9h16.7v9c2.8-6.9 7.6-9.7 14.2-9.6v15.6c-9.2-.5-14.2 2.5-14.2 8.9v20.4h-16.7v-44.3zM276.3 410.8H307v-4.1c0-15.9-10.6-23-23-23-13.6 0-24.6 8.9-24.6 23.3v.7c0 14.7 10.4 22.7 24.6 22.7 13.7 0 21.4-5.7 23-15.4h-15.7c-.7 2.2-2.5 4-6.7 4-4.8 0-7.9-2.9-8.3-8.2m.1-8.7c.7-5 3.6-7.6 7.6-7.6 4.5 0 6.8 2.9 6.9 7.6h-14.5zM309.1 407.7v-.7c0-15.1 10.7-23.3 24-23.3 11.1 0 21.3 4.7 22.2 18.6h-15.7c-.5-3.6-2-5.8-6.1-5.8-4.9 0-7.5 3.4-7.5 10.2v.7c0 7.2 2.4 10.8 7.7 10.8 3.8 0 6.4-2.4 6.8-6.7h15c-.4 11.4-8 18.8-22.9 18.8-13.3.1-23.5-7.5-23.5-22.6M358.3 385.4h16.6v44.3h-16.6zM366.7 381.4c8.9 0 16.2-7.2 16.2-16.2 0-8.9-7.2-16.2-16.2-16.2-8.9 0-16.2 7.2-16.2 16.2s7.2 16.2 16.2 16.2M378.8 384.9h16.7v6.4c2.5-4.1 6.9-7.6 13.6-7.6 10.1 0 18.6 7.5 18.6 23v.7c0 15.5-8.6 22.9-18.6 22.9-6.5 0-11.3-3.1-13.5-7.5V444h-16.7v-59.1zm31.8 22.4v-.7c0-7.1-2.9-10.5-7.9-10.5-4.9 0-7.7 3.7-7.7 10.5v.7c0 6.9 2.7 10.3 7.8 10.3s7.8-3.5 7.8-10.3M445.6 410.8h30.8v-4.1c0-15.9-10.6-23-23-23-13.6 0-24.6 8.9-24.6 23.3v.7c0 14.7 10.4 22.7 24.6 22.7 13.7 0 21.4-5.7 23-15.4h-15.7c-.7 2.2-2.5 4-6.7 4-4.8 0-7.9-2.9-8.4-8.2m.1-8.7c.7-5 3.6-7.6 7.6-7.6 4.5 0 6.8 2.9 6.9 7.6h-14.5zM477.3 415h15.3c.5 2.9 1.7 4.6 5.5 4.6 3.2 0 4.7-1.3 4.7-3.1 0-1.9-1.9-3-7.8-3.7-11.9-1.4-17.2-4.6-17.2-14.1 0-10.2 8.9-15 19.7-15 11.5 0 19.2 3.8 20.2 14.7h-15c-.5-2.6-1.9-4.2-5-4.2-3 0-4.4 1.4-4.4 3 0 2 2 2.9 7 3.4 12.8 1.5 18.7 4.6 18.7 14.2 0 10.9-8.3 15.6-20.8 15.6-13 0-20.6-5.4-20.9-15.4"/></symbol><symbol viewBox="0 0 27 27" id="icon-close"><title>Close Icon</title><path d="M14.92 13.5L26.355 2.068a.5.5 0 0 0 0-.707L25.64.647a.502.502 0 0 0-.708 0L13.5 12.08 2.068.645a.5.5 0 0 0-.708.001l-.714.715a.502.502 0 0 0 0 .708L12.08 13.5.645 24.932a.5.5 0 0 0 0 .707l.715.714a.502.502 0 0 0 .708 0L13.5 14.92l11.432 11.434a.5.5 0 0 0 .707 0l.714-.715a.502.502 0 0 0 0-.708L14.92 13.5z" fill-rule="evenodd"/></symbol><symbol viewBox="0 0 19 5" id="icon-ellipses"><circle cx="2.5" cy="2.5" r="2.5"/><circle cx="9.5" cy="2.5" r="2.5"/><circle cx="16.5" cy="2.5" r="2.5"/></symbol><symbol viewBox="0 0 17 13" id="icon-email"><title>Email</title><path d="M8.506 7.27l7.882-5.91a.981.981 0 0 0-.985-.985H1.61a.981.981 0 0 0-.985.985l7.88 5.91zm0 1.77L.626 3.13v8.082a.98.98 0 0 0 .984.985h13.793a.981.981 0 0 0 .985-.985V3.13L8.506 9.04z" fill-rule="evenodd"/></symbol><symbol viewBox="0 0 13 12" id="icon-empty-star"><title>Empty Star Icon</title><path d="M7.44 5.52h2.53L7.903 7.04 8.7 9.494l-2.224-1.47-2.108 1.46.78-2.48-2.058-1.47 2.552-.003.834-2.513.963 2.504zM6.475 0l-1.57 4.535H0l3.96 2.85L2.507 12l3.97-2.772 4.072 2.672-1.455-4.496 2.014-1.48L13 4.535H8.158L6.476 0z" fill-rule="evenodd"/></symbol><symbol viewBox="0 0 15 30" id="icon-facebook"><title>Like Cooking Light on Facebook</title><path d="M9.737 29.252V16.075h4.422l.662-5.136H9.737V7.663c0-1.492.407-2.498 2.548-2.498H15V.578c-.472-.064-2.09-.204-3.963-.204-3.926 0-6.602 2.396-6.602 6.78v3.785H0v5.135h4.435v13.177h5.302z" fill-rule="evenodd"/></symbol><symbol viewBox="0 0 13 12" id="icon-full-star"><title>Full Star Icon</title><path d="M6.476 0l-1.57 4.535H0l3.96 2.85L2.507 12l3.97-2.772 4.07 2.672-1.453-4.496 2.014-1.48L13 4.535H8.158L6.476 0" fill-rule="evenodd"/></symbol><symbol viewBox="0 0 17 30" id="icon-gallery-arrow"><title>Shape</title><path d="M15.825.381a1.296 1.296 0 0 0-.92-.381c-.334 0-.666.127-.92.381L.38 13.985a1.301 1.301 0 0 0 0 1.84L13.985 29.43a1.301 1.301 0 1 0 1.84-1.84L3.14 14.905 15.825 2.222a1.3 1.3 0 0 0 0-1.84z" fill="#B74747" fill-rule="evenodd"/></symbol><symbol viewBox="0 0 18 30" id="icon-gallery-arrow-next"><title>Page 1 Copy 3</title><path d="M2.47 0L0 2.443l12.477 12.554L0 27.557 2.47 30l15-15.003z" fill="#F38379" fill-rule="evenodd"/></symbol><symbol viewBox="0 0 18 30" id="icon-gallery-arrow-prev"><title>Page 1 Copy 2</title><path d="M15 0l2.47 2.443L4.993 14.997l12.477 12.56L15 30 0 14.997z" fill="#F38379" fill-rule="evenodd"/></symbol><symbol viewBox="0 0 25 25.147" id="icon-google-plus"><path d="M19.906 7.927v3.268H16.64v1.597h3.266v3.268h1.67v-3.268h3.268v-1.597h-3.267V7.927M3.056 19.635c0-2.31 2.112-3.09 2.838-3.35 1.386-.456 3.168-.52 3.467-.52.33 0 .494 0 .758.032 2.51 1.757 3.6 2.632 3.6 4.292 0 2.013-1.685 3.51-4.853 3.51-3.53.002-5.81-1.657-5.81-3.965M4.71 4.822c0-.846.164-1.804.725-2.487.53-.65 1.453-.993 2.312-.993 2.738 0 4.158 3.642 4.158 5.984 0 .585-.065 1.543-.825 2.292-.53.52-1.42.992-2.244.992C5.998 10.61 4.71 7 4.71 4.822M3.69 1.87c-1.42 1.2-1.885 2.967-1.885 4.463 0 2.535 1.98 5.104 5.48 5.104.33 0 .69-.032 1.056-.064-.165.39-.33.716-.33 1.27 0 1.006.527 1.624.99 2.21-1.485.098-4.258.26-6.303 1.495C.75 17.49.156 19.144.156 20.316c0 2.406 2.215 4.674 7 4.674 5.678 0 8.775-3.112 8.775-6.167 0-2.245-1.32-3.352-2.77-4.555l-1.19-.908c-.362-.294-.857-.685-.857-1.398 0-.716.495-1.173.924-1.595 1.385-1.07 2.77-2.212 2.77-4.617 0-2.473-1.503-3.666-2.263-4.284h1.957L16.642.16 9.76.156C7.975.157 5.57.34 3.69 1.87"/></symbol><symbol viewBox="0 0 12 10" id="icon-grid"><title>Grid Icon</title><path d="M0 0h5v4H0zm7 1.735V0h5v4H7m0 2h5v4H7zM0 6h5v4H0z" fill="#3D9982" fill-rule="evenodd"/></symbol><symbol viewBox="0 0 13 12" id="icon-half-star"><title>Half Star Icon</title><path d="M6.476 3.017L7.44 5.52h2.53L7.904 7.04 8.7 9.494l-2.224-1.47V3.016zm0-3.017l-1.57 4.535H0l3.96 2.85L2.507 12l3.97-2.772 4.072 2.672-1.455-4.496 2.014-1.48L13 4.535H8.158L6.476 0z" fill-rule="evenodd"/></symbol><symbol viewBox="0 0 19 19" id="icon-instagram"><title>Follow Cooking Light on Instagram</title><path d="M17.1 0H1.9C.855 0 0 .855 0 1.9v15.2C0 18.145.855 19 1.9 19h15.2c1.045 0 1.9-.855 1.9-1.9V1.9C19 .855 18.145 0 17.1 0zM9.5 5.7c2.09 0 3.8 1.71 3.8 3.8s-1.71 3.8-3.8 3.8-3.8-1.71-3.8-3.8 1.71-3.8 3.8-3.8zM2.375 17.1c-.285 0-.475-.19-.475-.475V8.55h1.995c-.095.285-.095.665-.095.95 0 3.135 2.565 5.7 5.7 5.7 3.135 0 5.7-2.565 5.7-5.7 0-.285 0-.665-.095-.95H17.1v8.075c0 .285-.19.475-.475.475H2.375zM17.1 4.275c0 .285-.19.475-.475.475h-1.9c-.285 0-.475-.19-.475-.475v-1.9c0-.285.19-.475.475-.475h1.9c.285 0 .475.19.475.475v1.9z" fill-rule="evenodd"/></symbol><symbol viewBox="0 0 12 10" id="icon-list"><title>List Icon</title><path d="M0 0h12v2H0zm0 4h12v2H0zm0 4h12v2H0z" fill="#3D9982" fill-rule="evenodd"/></symbol><symbol viewBox="0 0 32 18" id="icon-menu"><title>Menu Icon</title><path d="M0 0h32v2H0V0zm0 8h32v2H0V8zm0 8h32v2H0v-2z" fill="#F26457" fill-rule="evenodd"/></symbol><symbol viewBox="0 0 389 501.8" id="icon-pinterest"><path d="M162.6 327.7c-3.3 12.9-6.1 25.2-9.5 37.3-5.8 20.8-10.8 42-18.2 62.1-9.8 26.6-26 49.8-43.3 72.1-1.1 1.4-3.5 2.7-5.2 2.6-1-.1-2.5-2.9-2.7-4.6-4.1-29.6-6.5-59.4-1.9-89.1 2.9-18.9 7.7-37.5 12-56.1 8.9-38.2 18.1-76.4 26.9-114.6.7-2.8.4-6.3-.6-9.1-9.5-27.6-11-55.2 1.6-82.2 8-17.3 20.5-29.9 40.3-33 23.3-3.7 42.1 11.3 44.3 35 1.4 14.7-1.7 28.8-5.6 42.8-6.1 21.6-12.5 43.1-18.7 64.7-9.4 32.9 15.6 59.5 47.4 58.1 21.9-1 38.5-11.8 52-28 16.3-19.5 25.2-42.5 31-66.9 4.9-20.5 6.9-41.4 6.3-62.4-1.3-52.2-31.3-90.6-82.1-102.5-44.5-10.4-87-4.8-124.7 22.5-32.6 23.5-50.4 56.2-54.5 96-1.1 11-.8 22.3.5 33.3 1.6 14.7 7.9 27.8 17.7 39 4.6 5.2 5.6 10.6 3.7 17-2 6.5-3.4 13.2-5.1 19.8-2.6 9.8-7.7 12.2-17.2 8-19.6-8.8-33.7-23.3-42.4-42.6-19.5-43.3-18.9-87.1-.3-130.3 24.1-55.8 67.1-90.7 125-106.9C186.8-3.6 234.6-4.2 281 14.4c55.1 22.1 91.1 61.7 104.7 120.2 4.9 21.1 3.8 42.4 1.5 63.6-3.4 30.2-11.3 59.1-26.3 85.8-21.4 38.2-51.9 65.3-95.4 75.4-25.1 5.9-49.9 5.7-73.5-6.4-10.8-5.5-20.3-12.7-27.1-23-.6-.6-1.2-1.1-2.3-2.3z"/></symbol><symbol viewBox="0 0 73 73" id="icon-print"><title>Print</title><path d="M68.438 0A4.544 4.544 0 0 1 73 4.563v36.5a4.544 4.544 0 0 1-4.563 4.562h-7.604V30.417H12.167v15.208H4.563A4.543 4.543 0 0 1 0 41.062v-36.5A4.545 4.545 0 0 1 4.563 0h63.874zM18.25 36.5h36.5v34.98c0 .844-.676 1.52-1.52 1.52H19.77c-.844 0-1.52-.676-1.52-1.52V36.5zm8.11 11.193h13.69v4.563H26.36v-4.563zm0 10.1h18.25v4.56H26.36v-4.56z" fill-rule="evenodd"/></symbol><symbol viewBox="0 0 28 28" id="icon-search"><title>Search Icon</title><path d="M26.236 24.648l-6.14-6.14a10.711 10.711 0 0 0 2.396-6.764C22.492 5.81 17.682 1 11.746 1 5.81 1 1 5.81 1 11.746c0 5.934 4.81 10.746 10.746 10.746 2.67 0 5.11-.975 6.99-2.585l6.12 6.12a.975.975 0 1 0 1.38-1.379m-14.49-3.877c-4.985 0-9.027-4.04-9.027-9.024a9.025 9.025 0 0 1 9.026-9.027 9.025 9.025 0 0 1 9.025 9.026 9.025 9.025 0 0 1-9.024 9.025" fill-rule="evenodd"/></symbol><symbol viewBox="0 0 26 22" id="icon-sms"><title>Speech Bubble</title><g fill-rule="evenodd"><path d="M0 9c0-4.97 4.034-9 9.002-9h7.996a9 9 0 1 1 0 18H9.002A9 9 0 0 1 0 9zm6 2a2 2 0 1 0 .001-3.999A2 2 0 0 0 6 11zm7 0a2 2 0 1 0 .001-3.999A2 2 0 0 0 13 11zm7 0a2 2 0 1 0 .001-3.999A2 2 0 0 0 20 11z"/><path d="M14.556 12c.444 4-8.66 10-8.66 10s1.104-6 0-10h8.66z"/></g></symbol><symbol viewBox="0 0 23 24" id="icon-snapchat"><title>Follow Cooking Light on Snapchat</title><path d="M11.72.498h-.056l-.396.005c-.51 0-1.532.076-2.63.587a5.86 5.86 0 0 0-1.676 1.174c-.58.58-1.05 1.295-1.402 2.126-.514 1.216-.392 3.265-.294 4.91v.004l.032.54a.865.865 0 0 1-.378.075c-.29 0-.634-.1-1.024-.292a.883.883 0 0 0-.39-.085c-.232 0-.477.072-.69.204-.266.165-.438.4-.485.66-.03.17-.03.51.328.853.196.19.485.363.857.52.097.04.213.078.336.12.427.142 1.07.358 1.24.775.085.212.048.49-.11.827l-.01.028c-.04.096-.407.972-1.16 1.896a6.591 6.591 0 0 1-1.396 1.306c-.61.416-1.27.688-1.963.808a.565.565 0 0 0-.45.593.803.803 0 0 0 .056.248v.002c.11.272.366.502.78.705.506.248 1.262.457 2.25.62.05.1.1.352.136.524.038.184.077.372.132.57.06.218.217.477.617.477.153 0 .328-.037.53-.078a5.6 5.6 0 0 1 1.207-.146c.28 0 .57.026.863.077.563.1 1.05.463 1.61.882.824.614 1.756 1.31 3.18 1.31.037 0 .076-.003.115-.005.047.002.105.004.167.004 1.423 0 2.354-.694 3.176-1.308.564-.42 1.05-.782 1.612-.88.292-.052.583-.078.863-.078.483 0 .866.065 1.207.135.223.046.396.068.53.068h.025c.293 0 .51-.17.59-.467.055-.194.094-.378.133-.564.033-.16.087-.42.137-.52.987-.164 1.743-.373 2.25-.62.412-.203.667-.433.777-.703a.751.751 0 0 0 .057-.25.564.564 0 0 0-.45-.593c-3.076-.535-4.46-3.87-4.52-4.01-.002-.01-.007-.02-.01-.028-.158-.337-.194-.615-.11-.828.17-.417.813-.632 1.24-.775.122-.042.24-.08.335-.122.42-.175.72-.364.918-.58.236-.257.282-.503.28-.664-.008-.39-.29-.736-.74-.905a1.238 1.238 0 0 0-.5-.102c-.12 0-.297.017-.465.1-.36.178-.682.275-.96.29a.865.865 0 0 1-.316-.075l.027-.47.003-.07c.1-1.648.22-3.7-.293-4.916a6.661 6.661 0 0 0-1.407-2.132 5.865 5.865 0 0 0-1.683-1.174A6.422 6.422 0 0 0 11.72.5" fill-rule="evenodd"/></symbol><symbol viewBox="0 0 273.4 222.2" id="icon-twitter"><title>Follow Cooking Light on Twitter</title><path d="M273.4 26.3c-10.1 4.5-20.9 7.5-32.2 8.8 11.6-6.9 20.5-17.9 24.7-31-10.9 6.4-22.9 11.1-35.7 13.6A55.919 55.919 0 0 0 189.3 0c-31 0-56.1 25.1-56.1 56.1 0 4.4.5 8.7 1.5 12.8C88 66.5 46.7 44.2 19 10.3c-4.8 8.3-7.6 17.9-7.6 28.2 0 19.5 9.9 36.6 25 46.7-9.2-.3-17.8-2.8-25.4-7v.7c0 27.2 19.3 49.8 45 55-4.7 1.3-9.7 2-14.8 2-3.6 0-7.1-.4-10.6-1 7.1 22.3 27.9 38.5 52.4 39-19.2 15-43.4 24-69.7 24-4.5 0-9-.3-13.4-.8 24.8 15.9 54.3 25.2 86 25.2 103.2 0 159.6-85.5 159.6-159.6 0-2.4-.1-4.9-.2-7.3 11.1-8 20.6-17.9 28.1-29.1z"/></symbol><symbol viewBox="0 0 21 17" id="icon-video"><title>Watch Cooking Light on YouTube</title><path d="M20.78 3.678s-.206-1.664-.835-2.397C19.147.32 18.252.315 17.842.26 14.905.014 10.5.014 10.5.014h-.01s-4.406 0-7.343.244c-.41.056-1.305.06-2.103 1.023C.414 2.015.21 3.68.21 3.68S0 5.632 0 7.588v1.83c0 1.955.21 3.91.21 3.91s.205 1.664.834 2.397c.798.962 1.847.932 2.314 1.032 1.68.186 7.136.243 7.136.243s4.41-.008 7.348-.252c.41-.056 1.305-.06 2.103-1.023.63-.733.834-2.397.834-2.397s.21-1.955.21-3.91V7.59c0-1.956-.21-3.91-.21-3.91M8.327 11.64V4.855l5.67 3.404-5.67 3.38" fill-rule="evenodd"/></symbol><symbol viewBox="0 0 54 54" id="icon-video-play"><title>play-icon</title><g transform="translate(2 2)" fill="none" fill-rule="evenodd"><path fill="#52CCAD" d="M17 37V14l19 11.5z"/><circle stroke="#52CCAD" stroke-width="3" cx="25" cy="25" r="25"/></g></symbol><symbol viewBox="0 0 18 14" id="icon-youtube"><title>Watch Cooking Light on Youtube</title><path d="M17.28 3.477s-.168-1.24-.678-1.786C15.955.976 15.23.97 14.897.93 12.515.746 8.942.746 8.942.746h-.008S5.362.747 2.98.93c-.333.04-1.058.045-1.706.76-.51.547-.676 1.787-.676 1.787S.428 4.933.428 6.39v1.364c0 1.456.17 2.912.17 2.912s.166 1.24.676 1.785c.648.718 1.498.695 1.877.77 1.363.14 5.788.18 5.788.18s3.577-.004 5.96-.186c.33-.042 1.057-.046 1.704-.763.51-.544.677-1.784.677-1.784s.17-1.456.17-2.912V6.39c0-1.457-.17-2.913-.17-2.913m-10.1 5.93V4.354l4.6 2.536-4.6 2.518" fill-rule="evenodd"/></symbol></svg>