<?xml version="1.0" encoding="utf-8"?><svg width="52" height="32" viewBox="0 0 52 32" xmlns="http://www.w3.org/2000/svg" xmlns:xlink="http://www.w3.org/1999/xlink"><svg width="14" height="14" viewBox="0 0 14 14" id="custom-check" x="38"><title>Check Icon</title><path d="M5.627 8.59l3.82-4.997c.8-1.05 1.602-2.1 2.405-3.147.35-.455.985-.58 1.482-.29.414.243.666.59.666 1.085 0 .236-.08.448-.21.646-.598.918-1.194 1.838-1.79 2.757-1.81 2.79-3.628 5.572-5.424 8.37-.45.7-1.546.815-2.12.14-.523-.61-1.058-1.207-1.586-1.81l-1.835-2.1C.785 8.96.53 8.68.287 8.39c-.295-.355-.368-.762-.195-1.19.17-.422.497-.668.953-.726.347-.045.643.067.915.285.39.31.79.605 1.19.906.655.495 1.31.99 1.968 1.484.015.012.03.022.054.038.153-.2.305-.396.455-.594z" fill-rule="evenodd"/></svg><svg width="10" height="8" viewBox="0 0 10 8" id="icon-arrow-back" x="38" y="14"><title>Arrow</title><path d="M3.172 0l.139.166.394.468.141.168-.14.167-1.89 2.265H10v1.138H1.816l1.89 2.265.14.168-.14.167-.395.469-.14.166-.138-.167L.139 3.97 0 3.804l.139-.167L3.033.166z" fill="#171A1A" fill-rule="evenodd"/></svg><svg width="10" height="10" viewBox="0 0 10 10" id="icon-arrow-fresh" x="38" y="22"><title>icon-arrow-small</title><path d="M4.764 0l-.22.218-.62.616-.223.22.222.22 2.98 2.978H0v1.495h6.9L3.923 8.725l-.22.22.22.22.623.617.22.218.218-.22 4.562-4.56.22-.22-.22-.22L4.983.22 4.763 0z" fill="#3D9982" fill-rule="evenodd"/></svg><svg width="22" height="14" viewBox="0 0 22 14" id="icon-arrow-large-accent"><title>Arrow Right</title><path d="M14.823 0l-.292.305-.825.863-.296.308.293.308 3.96 4.17H.514v2.092h17.15l-3.96 4.17-.294.308.295.308.826.863.293.305.29-.307 6.066-6.385.29-.31-.29-.306L15.113.307" fill="#F26457" fill-rule="evenodd"/></svg><svg width="10" height="10" viewBox="0 0 10 10" id="icon-arrow-small" x="22" y="21"><title>arrow-small-line</title><path d="M4.764 0l-.22.218-.62.616-.223.22.222.22 2.98 2.978H0v1.495h6.9L3.923 8.725l-.22.22.22.22.623.617.22.218.218-.22 4.562-4.56.22-.22-.22-.22L4.983.22 4.763 0z" fill="#3D9982" fill-rule="evenodd"/></svg><svg width="16" height="11" viewBox="0 0 16 11" id="icon-arrow-small-accent" x="22"><title>Page 1 Copy 2</title><path d="M10.764.063l-.22.217-.62.617-.223.22.222.22 2.98 2.978H0v1.494h12.9L9.923 8.787l-.22.22.22.22.623.617.22.217.218-.218 4.562-4.561.22-.222-.22-.217L10.983.282" fill="#F8AB9C" fill-rule="evenodd"/></svg><svg width="16" height="10" viewBox="0 0 16 10" id="icon-arrow-small-transparent" x="22" y="11"><title>Page 1 Copy 2</title><path fill="#FFF" d="M10.764 0l-.219.218-.622.616-.222.22.221.22 2.979 2.978H0v1.495h12.901L9.922 8.725l-.221.221.222.22.622.616.219.218.219-.219 4.562-4.561.219-.221-.219-.219L10.983.219z" fill-rule="evenodd" fill-opacity=".5"/></svg><svg width="18" height="18" viewBox="0 0 18 18" id="tombstone" y="14"><title>Tombstone</title><g fill="none" fill-rule="evenodd"><path fill="#C0D1D1" d="M0 0h18v17.182H0z"/><g transform="translate(3.333 3.304)" fill="#FFF"><path d="M9.628.634l-.877.009c-.033.006-.054.02-.062.046l.006 9.487.001.134c0 .015.018.024.018.024s.657.017.942-.043c.825-.17 1.254-.839 1.484-1.465a5.08 5.08 0 0 0 .26-1.163l.04-.376c.01-.018.294.043.294.043l-.008 3.264H6.553c-.06-.024-.033-.199-.033-.244l.044-.014h.753c.018-.006.045-.01.05-.031l.009-.075L7.371.695a.072.072 0 0 0-.049-.039L6.57.639 6.567.358s2.005-.04 3.061 0c.048 0 0 .276 0 .276zM4.633.735c.073.075.119.16.189.233.03.005.051-.02.067-.04l.612-.736c.032-.04.12-.038.17-.031.023.009.034.029.037.05L5.705 2.07l-.018 1.124c-.011.018-.136.039-.163.036-.04.005-.067-.022-.078-.05-.265-.74-.502-1.416-.958-2.085C4.194.692 3.73.256 3.077.328c-.346.018-.629.238-.807.48-.367.481-.456.906-.583 1.54-.106.526-.114.787-.162 1.32-.037.418-.045.656-.06 1.076-.018.562-.029.88-.005 1.44.015.354.065.906.065.906.086.914.162 1.728.631 2.508.179.36.574.798 1.075.806.345.005.54-.074.81-.29.536-.432.73-.9.976-1.445.186-.48.26-.975.397-1.47.027-.037.151-.028.194-.026.02.005.038.01.049.025l.008.086-.005 3.443c-.006.02-.064.025-.083.032-.07.023-.097-.036-.135-.068-.216-.305-.436-.573-.66-.874h-.03a2.257 2.257 0 0 1-.71.654c-.22.137-.546.217-.79.218-.11 0-.218-.007-.321-.02-.32-.04-.924-.214-1.32-.596C.658 9.234.41 8.514.164 7.43c-.21-.91-.202-2.377-.07-3.318.125-.948.31-1.695.77-2.527.266-.48.57-.886 1.13-1.248C2.346.09 2.725 0 3.22 0c.648 0 1.09.377 1.413.735"/></g></g></svg></svg>